<svg xmlns="http://www.w3.org/2000/svg" xmlns:xlink="http://www.w3.org/1999/xlink" width="172.904" height="52.588" viewBox="0 0 172.904 52.588">
  <defs>
    <clipPath id="clip-path">
      <rect id="Rectangle_3670" data-name="Rectangle 3670" width="38.92" height="52.589" fill="none"/>
    </clipPath>
  </defs>
  <g id="logo" transform="translate(-103 -20.412)">
    <g id="Logo_1x" data-name="Logo 1x" transform="translate(58 -96.588)">
      <g id="Group_15220" data-name="Group 15220" transform="translate(45 117)">
        <g id="Group_15217" data-name="Group 15217" clip-path="url(#clip-path)">
          <path id="Path_26113" data-name="Path 26113" d="M37.09,75.331a32.451,32.451,0,0,0-17.639,7.638,32.424,32.424,0,0,0-17.62-7.638L0,75.228V92.14c0,10.145,8.73,18.4,19.461,18.4s19.46-8.255,19.46-18.4V75.228Zm-33.427,15V86.667a21.681,21.681,0,0,1,8.827,4.624,32.64,32.64,0,0,0-1.659,3.236,18.227,18.227,0,0,0-7.168-4.2m10.868-2.108A25.307,25.307,0,0,0,3.662,82.9V79.306A28.825,28.825,0,0,1,16.8,85.515a32.912,32.912,0,0,0-2.27,2.707m20.728-8.915V82.9a25.438,25.438,0,0,0-20,23.441,16.4,16.4,0,0,1-3.434-1.31A28.973,28.973,0,0,1,35.259,79.307M3.831,94.282a14.584,14.584,0,0,1,5.578,4.077,32.384,32.384,0,0,0-.98,4.316,14.4,14.4,0,0,1-4.6-8.393M18.9,106.863a21.771,21.771,0,0,1,16.363-20.2v3.668A18.231,18.231,0,0,0,22.45,106.608a16.89,16.89,0,0,1-2.99.269c-.189,0-.377-.007-.564-.014m7.36-1.422a14.576,14.576,0,0,1,8.834-11.167,14.921,14.921,0,0,1-8.834,11.167" transform="translate(0 -57.951)" fill="#92bb53"/>
          <path id="Path_26114" data-name="Path 26114" d="M75.926,21.052,78.553.168a20.462,20.462,0,0,0-5.253,0Z" transform="translate(-56.466 0.001)" fill="#f2c200"/>
          <path id="Path_26115" data-name="Path 26115" d="M105.5,35.639c-10.634,5.78-14.966,13.546-14.966,13.546a30.947,30.947,0,0,1,17.5-8.41,17.816,17.816,0,0,0-2.538-5.136" transform="translate(-69.74 -27.454)" fill="#f2c200"/>
          <path id="Path_26116" data-name="Path 26116" d="M94.362,6c-2.974,7.207-6.788,19.937-6.788,19.937A66.054,66.054,0,0,1,99.4,8.831,19.855,19.855,0,0,0,94.362,6" transform="translate(-67.462 -4.62)" fill="#f2c200"/>
          <path id="Path_26117" data-name="Path 26117" d="M5.257,35.639c10.635,5.78,14.968,13.546,14.968,13.546a30.954,30.954,0,0,0-17.5-8.41,17.855,17.855,0,0,1,2.537-5.136" transform="translate(-2.095 -27.454)" fill="#f2c200"/>
          <path id="Path_26118" data-name="Path 26118" d="M35.449,6c2.973,7.207,6.788,19.937,6.788,19.937a66.018,66.018,0,0,0-11.823-17.1A19.887,19.887,0,0,1,35.449,6" transform="translate(-23.428 -4.62)" fill="#f2c200"/>
        </g>
      </g>
      <g id="Group_15221" data-name="Group 15221" transform="translate(-167 -57)">
        <path id="Path_26119" data-name="Path 26119" d="M12.247,5.264l3.431,10.1h-6.9ZM9.867,0,0,26.013H5.148l2.263-6.591h9.671l2.262,6.591H24.8L14.938,0Z" transform="translate(259 188)" fill="#0a1108"/>
        <path id="Path_26120" data-name="Path 26120" d="M25.935,32.37,28,28.977a9.325,9.325,0,0,0,5.343,1.4,4.274,4.274,0,0,0,3-1.111,3.906,3.906,0,0,0,1.209-3.023V24.258a9.907,9.907,0,0,1-2.047,1.248,7.179,7.179,0,0,1-2.945.507,8.491,8.491,0,0,1-4.5-1.151A7.514,7.514,0,0,1,25.175,21.7a10.191,10.191,0,0,1-.995-4.582,9.809,9.809,0,0,1,1.268-4.953,9.265,9.265,0,0,1,3.588-3.529,10.984,10.984,0,0,1,5.479-1.307,23.357,23.357,0,0,1,4.407.39,22.923,22.923,0,0,1,3.237.819V26.324a7.951,7.951,0,0,1-1.131,4.329,7.144,7.144,0,0,1-3.1,2.711,10.564,10.564,0,0,1-4.505.916,16.18,16.18,0,0,1-4.524-.507,10.383,10.383,0,0,1-2.964-1.4M37.557,18.252V11.7a6.75,6.75,0,0,0-1.131-.292,12.475,12.475,0,0,0-1.833-.1,5.771,5.771,0,0,0-3.139.8,5.324,5.324,0,0,0-1.931,2.086A6.045,6.045,0,0,0,28.86,17a5.86,5.86,0,0,0,1.053,3.549A3.917,3.917,0,0,0,33.306,22q4.251,0,4.251-3.744" transform="translate(259 188)" fill="#0a1108"/>
        <path id="Path_26121" data-name="Path 26121" d="M45.084,26.013V7.722h4.407l.117,2.3a8.02,8.02,0,0,1,1.15-1.151A6.948,6.948,0,0,1,52.552,7.82a6.6,6.6,0,0,1,2.555-.449,8.178,8.178,0,0,1,1.189.078,5.675,5.675,0,0,1,1.073.273l-.936,4.329a5.963,5.963,0,0,0-2.106-.351,4.775,4.775,0,0,0-3.276,1.209,4.106,4.106,0,0,0-1.365,3.237v9.867Z" transform="translate(258 188)" fill="#0a1108"/>
        <path id="Path_26122" data-name="Path 26122" d="M58.421,0h4.914V4.836H58.421Zm.156,7.721h4.6V26.012h-4.6Z" transform="translate(258 188)" fill="#0a1108"/>
        <path id="Path_26123" data-name="Path 26123" d="M79.676,20.631,82.4,23.595a9.787,9.787,0,0,1-3.061,2.183,9.632,9.632,0,0,1-4.076.82,10.757,10.757,0,0,1-5.322-1.229,8.205,8.205,0,0,1-3.355-3.431,10.827,10.827,0,0,1-1.151-5.09,9.789,9.789,0,0,1,1.248-4.875A9.5,9.5,0,0,1,70.14,8.424,9.753,9.753,0,0,1,75.268,7.1a10.022,10.022,0,0,1,4.056.8,9.4,9.4,0,0,1,3.121,2.164L79.52,13.026a5.213,5.213,0,0,0-1.815-1.4,5.635,5.635,0,0,0-2.437-.508,4.879,4.879,0,0,0-2.9.82,4.992,4.992,0,0,0-1.717,2.126,6.942,6.942,0,0,0-.566,2.788,6.8,6.8,0,0,0,.566,2.691,5.231,5.231,0,0,0,1.717,2.184,4.719,4.719,0,0,0,2.9.858,5.967,5.967,0,0,0,2.515-.527,5.217,5.217,0,0,0,1.893-1.423" transform="translate(257 188)" fill="#0a1108"/>
        <path id="Path_26124" data-name="Path 26124" d="M82.444,16.847a9.794,9.794,0,0,1,1.248-4.875,9.5,9.5,0,0,1,3.452-3.548,10.574,10.574,0,0,1,10.257,0,9.5,9.5,0,0,1,3.451,3.548,9.794,9.794,0,0,1,1.248,4.875,9.786,9.786,0,0,1-1.248,4.875,9.853,9.853,0,0,1-17.16,0,9.786,9.786,0,0,1-1.248-4.875m9.828,5.812a4.585,4.585,0,0,0,2.906-.9,5.511,5.511,0,0,0,1.716-2.243,6.873,6.873,0,0,0,.565-2.672,6.738,6.738,0,0,0-.565-2.652,5.55,5.55,0,0,0-1.716-2.223,5.157,5.157,0,0,0-5.81,0,5.535,5.535,0,0,0-1.717,2.223,6.722,6.722,0,0,0-.566,2.652,6.856,6.856,0,0,0,.566,2.672,5.5,5.5,0,0,0,1.717,2.243,4.575,4.575,0,0,0,2.9.9" transform="translate(257 188)" fill="#0a1108"/>
        <rect id="Rectangle_3671" data-name="Rectangle 3671" width="4.602" height="26.013" transform="translate(361.167 188)" fill="#0a1108"/>
        <path id="Path_26125" data-name="Path 26125" d="M122.614,26.013,122.5,24.3a6.287,6.287,0,0,1-2.281,1.6,8.047,8.047,0,0,1-3.373.7,7.446,7.446,0,0,1-2.946-.624,5.688,5.688,0,0,1-2.418-1.951,5.6,5.6,0,0,1-.955-3.353,5.755,5.755,0,0,1,2.223-4.836,9.239,9.239,0,0,1,5.811-1.716q.663,0,1.58.038t2.359.117v-.428A2.5,2.5,0,0,0,121.4,11.7a4.8,4.8,0,0,0-2.847-.779,7.971,7.971,0,0,0-3.12.507,14,14,0,0,0-2.067,1.091L111.265,9.4a13.392,13.392,0,0,1,1.755-1.072,10.981,10.981,0,0,1,2.5-.878,16.261,16.261,0,0,1,3.666-.35A8.2,8.2,0,0,1,124.8,8.95a6.069,6.069,0,0,1,2.106,4.777V26.013Zm-.117-6.474V17.745q-.9-.078-1.949-.117t-1.6-.039a4.409,4.409,0,0,0-3.12.877,2.733,2.733,0,0,0-.9,2.009,2.207,2.207,0,0,0,.838,1.833,3.938,3.938,0,0,0,2.477.663,4.612,4.612,0,0,0,2.048-.468,4.564,4.564,0,0,0,1.579-1.248,2.69,2.69,0,0,0,.624-1.716" transform="translate(258 188)" fill="#0a1108"/>
      </g>
    </g>
  </g>
</svg>
